#!OML:ASF H:\Dans Jumps\Project 1\Capture day 1\Session 1\subject.ASF
:FULLY-SPECIFIED
:DEGREES
575
root 0.663019 17.6071 2.82055 7.7419 -0.339757 -0.753435
lowerback -2.76366 -0.339604 -0.850364
upperback 1.13409 -0.463568 1.67431
thorax 2.73554 -0.261683 2.17491
lowerneck -12.7027 0.481818 -1.60318
upperneck 19.1656 1.00763 -0.00530226
head 8.01715 0.360827 0.371418
rclavicle 2.23633e-015 1.23246e-014
rhumerus -29.6288 -24.215 -75.6671
rradius 19.0992
rwrist 43.1707
rhand -18.7892 -26.2967
rfingers 7.12502
rthumb 7.5086 -56.1434
lclavicle 2.23633e-015 1.23246e-014
lhumerus -25.5433 4.25195 88.6664
lradius 13.1661
lwrist -0.308431
lhand -23.933 -3.47178
lfingers 7.12502
lthumb 2.54204 26.4928
rfemur -13.9846 -2.44718 19.2191
rtibia 25.463
rfoot -16.9357 -2.66017
rtoes 5.48399
lfemur -12.8729 6.71168 -18.1262
ltibia 21.8661
lfoot -12.9165 5.99138
ltoes -4.47944
576
root 0.662067 17.607 2.82342 7.74697 -0.346559 -0.743098
lowerback -2.77582 -0.334708 -0.855825
upperback 1.12972 -0.456618 1.66822
thorax 2.73757 -0.258237 2.17202
lowerneck -12.6981 0.477445 -1.60533
upperneck 19.1228 0.999378 0.00547278
head 8.00204 0.358173 0.374296
rclavicle -5.31749e-015 3.57812e-015
rhumerus -29.5763 -24.146 -75.7098
rradius 19.1308
rwrist 43.0919
rhand -18.7922 -26.2992
rfingers 7.12502
rthumb 7.50576 -56.146
lclavicle -5.31749e-015 3.57812e-015
lhumerus -25.5082 4.21374 88.679
lradius 13.1878
lwrist -0.251172
lhand -23.9514 -3.47559
lfingers 7.12502
lthumb 2.52431 26.4892
rfemur -13.9828 -2.44065 19.2114
rtibia 25.4706
rfoot -16.9384 -2.66777
rtoes 5.51233
lfemur -12.8583 6.71277 -18.1338
ltibia 21.8506
lfoot -12.9174 5.99546
ltoes -4.4759
577
root 0.661102 17.607 2.82626 7.75236 -0.352222 -0.730378
lowerback -2.78717 -0.330192 -0.862951
upperback 1.12522 -0.450082 1.66125
thorax 2.73903 -0.255015 2.16914
lowerneck -12.692 0.472872 -1.60901
upperneck 19.0757 0.990862 0.0174927
head 7.98524 0.355441 0.377791
rclavicle -4.12478e-015 3.02153e-014
rhumerus -29.5204 -24.092 -75.7476
rradius 19.1559
rwrist 43.0242
rhand -18.7961 -26.3077
rfingers 7.12502
rthumb 7.50194 -56.1546
lclavicle -4.12478e-015 3.02153e-014
lhumerus -25.4692 4.17754 88.6874
lradius 13.2057
lwrist -0.19596
lhand -23.9992 -3.5399
lfingers 7.12502
lthumb 2.47816 26.4255
rfemur -13.9823 -2.43607 19.2011
rtibia 25.4805
rfoot -16.9441 -2.67632
rtoes 5.53354
lfemur -12.8425 6.71239 -18.1446
ltibia 21.8313
lfoot -12.9156 6.00173
ltoes -4.4896
578
root 0.660366 17.6069 2.82952 7.75576 -0.35853 -0.705733
lowerback -2.79689 -0.325509 -0.878553
upperback 1.11666 -0.442867 1.65098
thorax 2.7354 -0.251502 2.16767
lowerneck -12.6792 0.46931 -1.62906
upperneck 19.031 0.982531 0.0516457
head 7.9678 0.353784 0.391334
rclavicle -1.2424e-015 1.74931e-014
rhumerus -29.4728 -24.0458 -75.7768
rradius 19.1767
rwrist 42.9579
rhand -18.8033 -26.3266
rfingers 7.12502
rthumb 7.49497 -56.1738
lclavicle -1.2424e-015 1.74931e-014
lhumerus -25.4404 4.15268 88.6913
lradius 13.2218
lwrist -0.155151
lhand -24.0644 -3.63567
lfingers 7.12502
lthumb 2.41513 26.3304
rfemur -13.9795 -2.44305 19.1763
rtibia 25.4936
rfoot -16.9548 -2.67839
rtoes 5.5299
lfemur -12.8201 6.71141 -18.1699
ltibia 21.8083
lfoot -12.9148 6.0102
ltoes -4.50897
579
root 0.659594 17.6068 2.83262 7.75849 -0.365219 -0.680833
lowerback -2.80457 -0.322002 -0.895635
upperback 1.11067 -0.437205 1.64127
thorax 2.73335 -0.248826 2.16754
lowerneck -12.672 0.467345 -1.64694
upperneck 18.9817 0.976946 0.081401
head 7.94988 0.353173 0.403345
rclavicle -3.97569e-016 3.57812e-015
rhumerus -29.4174 -24.0012 -75.8085
rradius 19.1966
rwrist 42.8883
rhand -18.823 -26.3392
rfingers 7.12502
rthumb 7.47595 -56.1871
lclavicle -3.97569e-016 3.57812e-015
lhumerus -25.4086 4.13609 88.6909
lradius 13.24
lwrist -0.120984
lhand -24.1099 -3.69835
lfingers 7.12502
lthumb 2.37118 26.2682
rfemur -13.9774 -2.44732 19.1513
rtibia 25.5081
rfoot -16.9664 -2.68446
rtoes 5.51864
lfemur -12.7985 6.71211 -18.1956
ltibia 21.7862
lfoot -12.9133 6.01831
ltoes -4.53153
580
root 0.658856 17.6066 2.83556 7.76124 -0.370481 -0.655322
lowerback -2.81029 -0.319481 -0.912179
upperback 1.1055 -0.432871 1.63101
thorax 2.7311 -0.246802 2.16647
lowerneck -12.6674 0.466986 -1.66462
upperneck 18.9288 0.973622 0.110931
head 7.93124 0.353648 0.415473
rclavicle -1.14301e-015 -2.50469e-014
rhumerus -29.3592 -23.9615 -75.8408
rradius 19.2171
rwrist 42.8162
rhand -18.8488 -26.3476
rfingers 7.12502
rthumb 7.45113 -56.1964
lclavicle -1.14301e-015 -2.50469e-014
lhumerus -25.3762 4.12542 88.6865
lradius 13.2564
lwrist -0.0949133
lhand -24.132 -3.72372
lfingers 7.12502
lthumb 2.34983 26.2431
rfemur -13.976 -2.45283 19.1258
rtibia 25.5236
rfoot -16.9784 -2.69254
rtoes 5.50557
lfemur -12.7793 6.71396 -18.2223
ltibia 21.767
lfoot -12.9109 6.0255
ltoes -4.55697
581
root 0.657946 17.6064 2.8382 7.763 -0.37752 -0.637466
lowerback -2.81182 -0.317059 -0.924234
upperback 1.10278 -0.428953 1.62376
thorax 2.72901 -0.244953 2.16597
lowerneck -12.6648 0.467008 -1.67666
upperneck 18.8683 0.971653 0.130639
head 7.91048 0.354257 0.423527
rclavicle -3.97569e-016 -8.74653e-015
rhumerus -29.2955 -23.9434 -75.867
rradius 19.2318
rwrist 42.7634
rhand -18.8802 -26.3477
rfingers 7.12502
rthumb 7.4208 -56.1975
lclavicle -3.97569e-016 -8.74653e-015
lhumerus -25.3399 4.12118 88.6792
lradius 13.2709
lwrist -0.0760811
lhand -24.1206 -3.70482
lfingers 7.12502
lthumb 2.36089 26.2619
rfemur -13.9746 -2.44757 19.1096
rtibia 25.5376
rfoot -16.9875 -2.70804
rtoes 5.49924
lfemur -12.7646 6.71839 -18.2394
ltibia 21.7555
lfoot -12.9099 6.03118
ltoes -4.57704
582
root 0.656885 17.6061 2.84058 7.76396 -0.383414 -0.62698
lowerback -2.81009 -0.315786 -0.931071
upperback 1.10211 -0.426864 1.6192
thorax 2.72728 -0.24397 2.16523
lowerneck -12.6604 0.468142 -1.68318
upperneck 18.7998 0.972029 0.140306
head 7.88688 0.355451 0.427544
rclavicle -1.98785e-016 -6.36111e-015
rhumerus -29.2268 -23.9433 -75.8888
rradius 19.2418
rwrist 42.7251
rhand -18.91 -26.3439
rfingers 7.12502
rthumb 7.39199 -56.1948
lclavicle -1.98785e-016 -6.36111e-015
lhumerus -25.3042 4.12212 88.6693
lradius 13.2853
lwrist -0.0684112
lhand -24.0854 -3.64669
lfingers 7.12502
lthumb 2.39491 26.3196
rfemur -13.9724 -2.43389 19.1025
rtibia 25.5497
rfoot -16.9936 -2.73005
rtoes 5.50667
lfemur -12.7537 6.72609 -18.2472
ltibia 21.7498
lfoot -12.9103 6.0337
ltoes -4.60003
583
root 0.655623 17.6057 2.84271 7.76501 -0.386695 -0.625329
lowerback -2.80731 -0.315666 -0.931779
upperback 1.10328 -0.426661 1.61806
thorax 2.7269 -0.243876 2.16448
lowerneck -12.6568 0.469434 -1.68333
upperneck 18.7277 0.973279 0.140146
head 7.86227 0.356579 0.427332
rclavicle -5.96354e-015 -3.97569e-016
rhumerus -29.1551 -23.9554 -75.9073
rradius 19.2495
rwrist 42.6955
rhand -18.933 -26.3414
rfingers 7.12502
rthumb 7.36983 -56.193
lclavicle -5.96354e-015 -3.97569e-016
lhumerus -25.2622 4.11602 88.6609
lradius 13.2874
lwrist -0.0635143
lhand -24.0574 -3.6233
lfingers 7.12502
lthumb 2.42192 26.3427
rfemur -13.9696 -2.41361 19.1065
rtibia 25.5586
rfoot -16.9964 -2.75873
rtoes 5.52309
lfemur -12.7473 6.73428 -18.2437
ltibia 21.7499
lfoot -12.9141 6.03243
ltoes -4.60954
